<svg width="1440" height="1024" viewBox="0 0 1440 1024" fill="none" xmlns="http://www.w3.org/2000/svg">
<line x1="-59" y1="601.644" x2="1452.58" y2="601.644" stroke="white" stroke-opacity="0.09" stroke-width="1.2607"/>
<line x1="-59" y1="924.382" x2="1452.58" y2="924.382" stroke="white" stroke-opacity="0.09" stroke-width="1.2607"/>
<line x1="-59" y1="278.906" x2="1452.58" y2="278.906" stroke="white" stroke-opacity="0.09" stroke-width="1.2607"/>
<line x1="-59" y1="440.274" x2="1452.58" y2="440.274" stroke="white" stroke-opacity="0.09" stroke-width="1.2607"/>
<line x1="-59" y1="763.012" x2="1452.58" y2="763.012" stroke="white" stroke-opacity="0.09" stroke-width="1.2607"/>
<line x1="-59" y1="117.536" x2="1452.58" y2="117.536" stroke="white" stroke-opacity="0.09" stroke-width="1.2607"/>
<line x1="-59" y1="520.959" x2="1452.58" y2="520.959" stroke="white" stroke-opacity="0.09" stroke-width="1.2607"/>
<line x1="-59" y1="843.697" x2="1452.58" y2="843.697" stroke="white" stroke-opacity="0.09" stroke-width="1.2607"/>
<line x1="-59" y1="198.221" x2="1452.58" y2="198.221" stroke="white" stroke-opacity="0.09" stroke-width="1.2607"/>
<line x1="-59" y1="1005.07" x2="1452.58" y2="1005.07" stroke="white" stroke-opacity="0.09" stroke-width="1.2607"/>
<line x1="-59" y1="359.589" x2="1452.58" y2="359.589" stroke="white" stroke-opacity="0.09" stroke-width="1.2607"/>
<line x1="-59" y1="682.329" x2="1452.58" y2="682.329" stroke="white" stroke-opacity="0.09" stroke-width="1.2607"/>
<line x1="-59" y1="36.8507" x2="1452.58" y2="36.8507" stroke="white" stroke-opacity="0.09" stroke-width="1.2607"/>
<line x1="633.756" y1="-72.1988" x2="633.756" y2="1095.21" stroke="white" stroke-opacity="0.09" stroke-width="1.2607"/>
<line x1="311.016" y1="-72.199" x2="311.016" y2="1095.21" stroke="white" stroke-opacity="0.09" stroke-width="1.2607"/>
<line x1="956.492" y1="-72.1988" x2="956.492" y2="1095.21" stroke="white" stroke-opacity="0.09" stroke-width="1.2607"/>
<line x1="1279.23" y1="-72.1988" x2="1279.23" y2="1095.21" stroke="white" stroke-opacity="0.09" stroke-width="1.2607"/>
<line x1="149.645" y1="-72.1988" x2="149.645" y2="1095.21" stroke="white" stroke-opacity="0.09" stroke-width="1.2607"/>
<line x1="795.122" y1="-72.1988" x2="795.122" y2="1095.21" stroke="white" stroke-opacity="0.09" stroke-width="1.2607"/>
<line x1="472.386" y1="-72.1988" x2="472.386" y2="1095.21" stroke="white" stroke-opacity="0.09" stroke-width="1.2607"/>
<line x1="1117.86" y1="-72.199" x2="1117.86" y2="1095.21" stroke="white" stroke-opacity="0.09" stroke-width="1.2607"/>
<line x1="1440.6" y1="-72.1988" x2="1440.6" y2="1095.21" stroke="white" stroke-opacity="0.09" stroke-width="1.2607"/>
<line x1="68.9626" y1="-72.1988" x2="68.9626" y2="1095.21" stroke="white" stroke-opacity="0.09" stroke-width="1.2607"/>
<line x1="714.439" y1="-72.199" x2="714.439" y2="1095.21" stroke="white" stroke-opacity="0.09" stroke-width="1.2607"/>
<line x1="391.699" y1="-72.1988" x2="391.699" y2="1095.21" stroke="white" stroke-opacity="0.09" stroke-width="1.2607"/>
<line x1="1037.18" y1="-72.1988" x2="1037.18" y2="1095.21" stroke="white" stroke-opacity="0.09" stroke-width="1.2607"/>
<line x1="1359.92" y1="-72.1988" x2="1359.92" y2="1095.21" stroke="white" stroke-opacity="0.09" stroke-width="1.2607"/>
<line x1="230.333" y1="-72.1988" x2="230.333" y2="1095.21" stroke="white" stroke-opacity="0.09" stroke-width="1.2607"/>
<line x1="875.809" y1="-72.1988" x2="875.809" y2="1095.21" stroke="white" stroke-opacity="0.09" stroke-width="1.2607"/>
<line x1="553.069" y1="-72.1988" x2="553.069" y2="1095.21" stroke="white" stroke-opacity="0.09" stroke-width="1.2607"/>
<line x1="1198.55" y1="-72.1988" x2="1198.55" y2="1095.21" stroke="white" stroke-opacity="0.09" stroke-width="1.2607"/>
</svg>
