<svg xmlns="http://www.w3.org/2000/svg" xmlns:xlink="http://www.w3.org/1999/xlink" width="500" zoomAndPan="magnify" viewBox="0 0 375 374.999991" height="500" preserveAspectRatio="xMidYMid meet" version="1.0"><path stroke-linecap="butt" transform="matrix(0, 0.75, -0.75, 0, 75.124893, 127.049992)" fill="none" stroke-linejoin="miter" d="M 0.00105279 22.499859 L 160.001063 22.499859 " stroke="#000000" stroke-width="45" stroke-opacity="1" stroke-miterlimit="4"/><path stroke-linecap="butt" transform="matrix(0.374858, 0.649601, -0.649601, 0.374858, 74.974166, 127.049992)" fill="none" stroke-linejoin="miter" d="M 0.000920832 22.498631 L 160.002001 22.500284 " stroke="#000000" stroke-width="45" stroke-opacity="1" stroke-miterlimit="4"/><path stroke-linecap="butt" transform="matrix(0, 0.75, -0.75, 0, 139.760371, 127.949992)" fill="none" stroke-linejoin="miter" d="M -0.00103046 22.498205 L 159.99898 22.498205 " stroke="#000000" stroke-width="45" stroke-opacity="1" stroke-miterlimit="4"/><path stroke-linecap="butt" transform="matrix(0.75, 0.000000000000000177, -0.000000000000000177, 0.75, 113.262609, 127.949992)" fill="none" stroke-linejoin="miter" d="M -0.00118708 22.498971 L 120.660279 22.498971 " stroke="#000000" stroke-width="45" stroke-opacity="1" stroke-miterlimit="4"/><path stroke-linecap="butt" transform="matrix(0, 0.75, -0.75, 0, 204.761578, 127.949992)" fill="none" stroke-linejoin="miter" d="M -0.00103046 22.499814 L 159.99898 22.499814 " stroke="#000000" stroke-width="45" stroke-opacity="1" stroke-miterlimit="4"/><path stroke-linecap="butt" transform="matrix(0.75, 0, 0, 0.75, 113.262609, 214.199972)" fill="none" stroke-linejoin="miter" d="M -0.00118708 22.498998 L 120.660279 22.498998 " stroke="#000000" stroke-width="45" stroke-opacity="1" stroke-miterlimit="4"/><path stroke-linecap="butt" transform="matrix(0.75, 0.000000000000000177, -0.000000000000000177, 0.75, 174.707599, 127.949992)" fill="none" stroke-linejoin="miter" d="M -0.00075757 22.498971 L 120.660709 22.498971 " stroke="#000000" stroke-width="45" stroke-opacity="1" stroke-miterlimit="4"/><path stroke-linecap="butt" transform="matrix(0, 0.75, -0.75, 0, 271.504235, 127.949992)" fill="none" stroke-linejoin="miter" d="M -0.00103046 22.500439 L 159.99898 22.500439 " stroke="#000000" stroke-width="45" stroke-opacity="1" stroke-miterlimit="4"/><path stroke-linecap="butt" transform="matrix(0.75, 0.000000000000000707, -0.000000000000000707, 0.75, 178.887209, 176.529188)" fill="none" stroke-linejoin="miter" d="M -0.000653337 22.497543 L 120.660813 22.497543 " stroke="#000000" stroke-width="45" stroke-opacity="1" stroke-miterlimit="4"/><path stroke-linecap="butt" transform="matrix(0, 0.75, -0.75, 0, 333.62512, 127.049992)" fill="none" stroke-linejoin="miter" d="M 0.00105279 22.500162 L 160.001063 22.500162 " stroke="#000000" stroke-width="45" stroke-opacity="1" stroke-miterlimit="4"/><path stroke-linecap="butt" transform="matrix(0.75, 0.000000000000000707, -0.000000000000000707, 0.75, 243.131137, 176.529188)" fill="none" stroke-linejoin="miter" d="M 0.00223462 22.497543 L 120.658493 22.497543 " stroke="#000000" stroke-width="45" stroke-opacity="1" stroke-miterlimit="4"/></svg>